<mxfile host="app.diagrams.net" modified="2021-04-16T02:38:25.166Z" agent="5.0 (Windows NT 10.0; Win64; x64) AppleWebKit/537.36 (KHTML, like Gecko) Chrome/89.0.4389.114 Safari/537.36 Edg/89.0.774.76" etag="F3-EJ4P9IB0KoAnp4QQK" version="14.6.1" type="github">
  <diagram id="j44maHU3o5dbgH6CHT7L" name="Page-1">
    <mxGraphModel dx="1422" dy="762" grid="1" gridSize="10" guides="1" tooltips="1" connect="1" arrows="1" fold="1" page="1" pageScale="1" pageWidth="850" pageHeight="1100" math="0" shadow="0">
      <root>
        <mxCell id="0" />
        <mxCell id="1" parent="0" />
        <mxCell id="SN_OnoSPeZTV_U0J-tKk-2" value="Test Class" style="text;html=1;strokeColor=none;fillColor=none;align=center;verticalAlign=middle;whiteSpace=wrap;rounded=0;" vertex="1" parent="1">
          <mxGeometry x="40" y="60" width="70" height="20" as="geometry" />
        </mxCell>
        <mxCell id="SN_OnoSPeZTV_U0J-tKk-4" value="Pages&lt;br&gt;" style="text;html=1;strokeColor=none;fillColor=none;align=center;verticalAlign=middle;whiteSpace=wrap;rounded=0;" vertex="1" parent="1">
          <mxGeometry x="230" y="60" width="100" height="20" as="geometry" />
        </mxCell>
        <mxCell id="SN_OnoSPeZTV_U0J-tKk-6" value="ActionControll&lt;br&gt;" style="text;html=1;strokeColor=none;fillColor=none;align=center;verticalAlign=middle;whiteSpace=wrap;rounded=0;" vertex="1" parent="1">
          <mxGeometry x="430" y="35" width="100" height="70" as="geometry" />
        </mxCell>
        <mxCell id="SN_OnoSPeZTV_U0J-tKk-9" value="ElementPAge&lt;br&gt;" style="text;html=1;strokeColor=none;fillColor=none;align=center;verticalAlign=middle;whiteSpace=wrap;rounded=0;" vertex="1" parent="1">
          <mxGeometry x="610" y="60" width="80" height="20" as="geometry" />
        </mxCell>
        <mxCell id="SN_OnoSPeZTV_U0J-tKk-10" value="LoginElement&lt;br&gt;" style="ellipse;whiteSpace=wrap;html=1;" vertex="1" parent="1">
          <mxGeometry x="600" y="90" width="110" height="80" as="geometry" />
        </mxCell>
        <mxCell id="SN_OnoSPeZTV_U0J-tKk-11" value="loginActControl" style="ellipse;whiteSpace=wrap;html=1;" vertex="1" parent="1">
          <mxGeometry x="425" y="90" width="120" height="40" as="geometry" />
        </mxCell>
        <mxCell id="SN_OnoSPeZTV_U0J-tKk-12" value="loginVerifyControl" style="ellipse;whiteSpace=wrap;html=1;" vertex="1" parent="1">
          <mxGeometry x="420" y="140" width="120" height="50" as="geometry" />
        </mxCell>
        <mxCell id="SN_OnoSPeZTV_U0J-tKk-13" value="Login" style="ellipse;whiteSpace=wrap;html=1;" vertex="1" parent="1">
          <mxGeometry x="220" y="90" width="120" height="80" as="geometry" />
        </mxCell>
        <mxCell id="SN_OnoSPeZTV_U0J-tKk-14" value="LoginTest&lt;br&gt;" style="ellipse;whiteSpace=wrap;html=1;" vertex="1" parent="1">
          <mxGeometry x="15" y="90" width="120" height="80" as="geometry" />
        </mxCell>
        <mxCell id="SN_OnoSPeZTV_U0J-tKk-18" value="" style="endArrow=classic;html=1;entryX=1;entryY=0.5;entryDx=0;entryDy=0;" edge="1" parent="1" target="SN_OnoSPeZTV_U0J-tKk-11">
          <mxGeometry width="50" height="50" relative="1" as="geometry">
            <mxPoint x="600" y="130" as="sourcePoint" />
            <mxPoint x="650" y="80" as="targetPoint" />
          </mxGeometry>
        </mxCell>
        <mxCell id="SN_OnoSPeZTV_U0J-tKk-20" value="" style="endArrow=classic;html=1;" edge="1" parent="1" target="SN_OnoSPeZTV_U0J-tKk-13">
          <mxGeometry width="50" height="50" relative="1" as="geometry">
            <mxPoint x="425" y="110" as="sourcePoint" />
            <mxPoint x="475" y="60" as="targetPoint" />
          </mxGeometry>
        </mxCell>
        <mxCell id="SN_OnoSPeZTV_U0J-tKk-21" value="" style="endArrow=classic;html=1;exitX=0;exitY=0.5;exitDx=0;exitDy=0;" edge="1" parent="1" source="SN_OnoSPeZTV_U0J-tKk-12">
          <mxGeometry width="50" height="50" relative="1" as="geometry">
            <mxPoint x="410" y="170" as="sourcePoint" />
            <mxPoint x="340" y="120" as="targetPoint" />
          </mxGeometry>
        </mxCell>
        <mxCell id="SN_OnoSPeZTV_U0J-tKk-24" value="" style="endArrow=classic;html=1;entryX=1;entryY=0.5;entryDx=0;entryDy=0;" edge="1" parent="1" target="SN_OnoSPeZTV_U0J-tKk-14">
          <mxGeometry width="50" height="50" relative="1" as="geometry">
            <mxPoint x="220" y="120" as="sourcePoint" />
            <mxPoint x="270" y="70" as="targetPoint" />
          </mxGeometry>
        </mxCell>
        <mxCell id="SN_OnoSPeZTV_U0J-tKk-25" value="" style="endArrow=classic;html=1;entryX=1;entryY=0.5;entryDx=0;entryDy=0;" edge="1" parent="1" target="SN_OnoSPeZTV_U0J-tKk-12">
          <mxGeometry width="50" height="50" relative="1" as="geometry">
            <mxPoint x="600" y="135" as="sourcePoint" />
            <mxPoint x="650" y="85" as="targetPoint" />
          </mxGeometry>
        </mxCell>
      </root>
    </mxGraphModel>
  </diagram>
</mxfile>
